<svg width="60" height="60" viewBox="0 0 60 60" fill="none" xmlns="http://www.w3.org/2000/svg">
<rect opacity="0.2" x="0.5" y="0.5" width="59" height="59" rx="29.5" stroke="black"/>
<mask id="mask0_517_1215" style="mask-type:alpha" maskUnits="userSpaceOnUse" x="23" y="17" width="15" height="27">
<rect x="38" y="43.4287" width="15" height="26.4286" transform="rotate(180 38 43.4287)" fill="#D9D9D9"/>
</mask>
<g mask="url(#mask0_517_1215)">
<mask id="mask1_517_1215" style="mask-type:alpha" maskUnits="userSpaceOnUse" x="23" y="17" width="16" height="27">
<path d="M23.0022 29.8573L37.6451 17.0001L37.2879 19.5001L32.6451 27.3573L29.4308 31.2859C30.8594 32.8335 33.7879 36.0001 34.0737 36.2859C34.3594 36.5716 37.0499 40.9287 38.3594 43.0716L37.6451 43.4287L23.0022 30.2144V29.8573Z" fill="#D9D9D9"/>
</mask>
<g mask="url(#mask1_517_1215)">
<path d="M37.8337 16.8376L29.1173 26.8799C27.5246 28.7149 27.5318 31.4442 29.1343 33.2707L38.3622 43.789L27.8438 34.5612C26.0173 32.9587 23.288 32.9515 21.453 34.5442L11.4107 43.2606L20.1271 33.2183C21.7198 31.3833 21.7126 28.654 20.1101 26.8275L10.8823 16.3091L21.4006 25.537C23.2271 27.1395 25.9564 27.1467 27.7914 25.554L37.8337 16.8376Z" fill="url(#paint0_linear_517_1215)"/>
</g>
</g>
<defs>
<linearGradient id="paint0_linear_517_1215" x1="28.8677" y1="30.1617" x2="22.082" y2="30.1617" gradientUnits="userSpaceOnUse">
<stop/>
<stop offset="1" stop-color="white" stop-opacity="0"/>
</linearGradient>
</defs>
</svg>
