<svg width="60" height="24" viewBox="0 0 90 84" fill="none" xmlns="http://www.w3.org/2000/svg">
<path d="M6.25883 74.2493L0 77.8623V66.9957L6.2381 63.3896C11.7439 60.2049 18.5347 60.2049 24.0405 63.3896L36.0953 70.3531C41.6012 73.5378 48.3919 73.5378 53.8978 70.3531L65.9526 63.3827C71.4584 60.198 78.2422 60.198 83.755 63.3827L90 66.9957V77.8623L83.7343 74.2493C78.2353 71.0854 71.4722 71.0854 65.9733 74.2493L53.877 81.2197C48.3781 84.3836 41.615 84.3836 36.1161 81.2197L24.0198 74.2493C18.5209 71.0854 11.7578 71.0854 6.25883 74.2493ZM41.5045 31.6395L44.0467 61.6349C44.095 62.1254 44.5026 62.5054 44.9931 62.5054C45.4905 62.5054 45.8981 62.1254 45.9395 61.6349L48.4955 31.6395L74.2631 16.7869C74.6293 16.5728 74.8572 16.1859 74.8572 15.7645V4.8012C74.8572 4.58704 74.7398 4.39361 74.5533 4.28308C74.3737 4.17946 74.1457 4.17946 73.9592 4.28308L48.8133 18.8248C48.6406 18.9216 48.4334 18.9285 48.2538 18.8456C48.0741 18.7558 47.9498 18.5831 47.9222 18.3896L45.5872 0.518115C45.5457 0.227971 45.2971 0 44.9931 0C44.696 0 44.4473 0.227971 44.4128 0.525023L42.064 18.3896C42.0364 18.59 41.912 18.7558 41.7324 18.8456C41.5597 18.9285 41.3456 18.9216 41.1729 18.8248L16.027 4.28999C15.8405 4.17946 15.6125 4.17946 15.4329 4.28308C15.2464 4.39361 15.1359 4.58704 15.1359 4.8012V15.7645C15.1359 16.1859 15.3638 16.5728 15.73 16.7869L41.5045 31.6395Z" fill="#FEFEFE"/>
</svg>
